<svg version="1.1" id="Layer_1" xmlns="http://www.w3.org/2000/svg" xmlns:xlink="http://www.w3.org/1999/xlink" x="0px" y="0px"
	 width="100%" viewBox="0 0 208 344" enable-background="new 0 0 208 344" xml:space="preserve">
<path fill="#061B44" opacity="1.000000" stroke="#061B44" stroke-width = "20"
	d="
M73.930542,26.823408 
	C121.820625,9.397171 171.400482,34.343899 185.006622,82.391426 
	C198.707443,130.773300 165.234665,181.105270 115.312271,187.188644 
	C62.753731,193.593246 17.729164,152.114166 21.296644,99.345184 
	C23.622126,64.947456 41.924717,40.824211 73.930542,26.823408 
z"/>
<path fill="#F1FDFC" opacity="1.000000" stroke="#061B44" stroke-width = "20"
	d="
M189.000214,188.000046 
	C189.000214,207.320160 189.024445,226.140305 188.995361,244.960403 
	C188.926926,289.233978 153.368179,324.512054 109.097359,325.137024 
	C86.811195,325.451599 66.559883,320.739227 49.350788,306.016174 
	C31.904551,291.090302 21.903917,272.049194 21.252420,249.147263 
	C20.476160,221.859558 21.069550,194.532913 21.069550,166.219757 
	C43.043118,193.452164 70.732697,208.168518 105.246803,207.888428 
	C139.778336,207.608231 167.246628,192.663620 189.000214,164.614609 
	C189.000214,172.786316 189.000214,180.143188 189.000214,188.000046 
z"/>
</svg>