<svg version="1.1" id="Layer_1" xmlns="http://www.w3.org/2000/svg" xmlns:xlink="http://www.w3.org/1999/xlink" x="0px" y="0px"
	 width="100%" viewBox="0 0 208 344" enable-background="new 0 0 208 344" xml:space="preserve">
<path fill="#F9FCC6" opacity="1.000000" stroke="#061B44" stroke-width = "20" 
	d="
M32.659405,282.283478 
	C10.324172,241.258987 24.640842,190.879440 64.660980,168.694199 
	C105.075439,146.290359 155.779083,160.405838 178.104065,200.275818 
	C200.683167,240.599594 186.835373,291.411255 147.126633,313.941284 
	C106.555313,336.960724 56.535812,323.243652 32.659405,282.283478 
z"/>
<path fill="#F1FDFC" opacity="1.000000" stroke="#061B44" stroke-width = "20"
	d="
M130.787079,141.069733 
	C85.918060,131.536224 50.007256,145.600372 21.222315,180.688736 
	C21.143318,178.970932 21.010300,177.415924 21.009483,175.860855 
	C20.996441,151.038345 20.982649,126.215813 21.004148,101.393318 
	C21.043018,56.516880 56.589741,21.373323 101.581856,20.868200 
	C123.337563,20.623949 143.088196,25.314018 160.026688,39.475288 
	C177.223923,53.852894 187.664093,72.305199 188.550400,94.575607 
	C189.667450,122.644363 188.819809,150.791290 188.819809,179.899734 
	C173.569778,160.172531 154.491104,147.442947 130.787079,141.069733 
z"/>
</svg>